<svg width="182" height="46" viewBox="0 0 182 46" fill="none" xmlns="http://www.w3.org/2000/svg">
<path d="M66.098 32.5781L70.4854 10.9231H77.848L70.3593 37.9793H65.9467L66.098 32.5781ZM63.5009 10.9231L67.9639 32.6031L68.0395 37.9793H63.6018L56.113 10.9231H63.5009Z" fill="#F7F7F7"/>
<path d="M88.3121 16.9495V37.9793H81.252V10.9231H87.9087L88.3121 16.9495ZM94.7418 10.723L94.641 17.6997C94.3216 17.633 93.9349 17.583 93.4811 17.5496C93.044 17.5163 92.6574 17.4996 92.3212 17.4996C91.5312 17.4996 90.8588 17.6246 90.304 17.8747C89.7493 18.1081 89.2871 18.4665 88.9172 18.9499C88.5642 19.4167 88.2953 20.0002 88.1104 20.7003C87.9255 21.4005 87.8162 22.1924 87.7826 23.0759L86.4462 22.5758C86.4462 20.8087 86.5807 19.1917 86.8496 17.7247C87.1354 16.241 87.5557 14.9574 88.1104 13.8738C88.6651 12.7735 89.3291 11.9233 90.1023 11.3232C90.8924 10.723 91.7833 10.423 92.7751 10.423C93.1113 10.423 93.4643 10.4563 93.8341 10.523C94.2207 10.573 94.5233 10.6397 94.7418 10.723Z" fill="#F7F7F7"/>
<path d="M96.6329 25.3764V23.551C96.6329 21.4339 96.8851 19.5584 97.3893 17.9247C97.9104 16.291 98.6501 14.924 99.6082 13.8238C100.566 12.7068 101.718 11.865 103.063 11.2982C104.424 10.7147 105.946 10.423 107.626 10.423C109.324 10.423 110.846 10.7147 112.19 11.2982C113.552 11.865 114.712 12.7068 115.67 13.8238C116.645 14.924 117.393 16.291 117.914 17.9247C118.435 19.5584 118.696 21.4339 118.696 23.551V25.3764C118.696 27.4769 118.435 29.344 117.914 30.9777C117.393 32.6114 116.645 33.9868 115.67 35.1037C114.712 36.2206 113.56 37.0625 112.216 37.6293C110.871 38.1961 109.358 38.4795 107.677 38.4795C105.996 38.4795 104.475 38.1961 103.113 37.6293C101.768 37.0625 100.608 36.2206 99.6334 35.1037C98.6585 33.9868 97.9104 32.6114 97.3893 30.9777C96.8851 29.344 96.6329 27.4769 96.6329 25.3764ZM103.693 23.551V25.3764C103.693 26.6267 103.777 27.7103 103.945 28.6272C104.13 29.5441 104.391 30.3026 104.727 30.9027C105.08 31.5028 105.5 31.9446 105.988 32.228C106.475 32.5114 107.038 32.6531 107.677 32.6531C108.316 32.6531 108.887 32.5114 109.391 32.228C109.896 31.9446 110.308 31.5028 110.627 30.9027C110.963 30.3026 111.207 29.5441 111.358 28.6272C111.526 27.7103 111.61 26.6267 111.61 25.3764V23.551C111.61 22.3341 111.518 21.2671 111.333 20.3503C111.148 19.4167 110.888 18.6582 110.551 18.0747C110.215 17.4746 109.795 17.0245 109.291 16.7244C108.803 16.4077 108.248 16.2493 107.626 16.2493C107.005 16.2493 106.45 16.4077 105.962 16.7244C105.492 17.0245 105.08 17.4746 104.727 18.0747C104.391 18.6582 104.13 19.4167 103.945 20.3503C103.777 21.2671 103.693 22.3341 103.693 23.551Z" fill="#F7F7F7"/>
<path d="M122.352 25.3764V23.551C122.352 21.4339 122.604 19.5584 123.108 17.9247C123.629 16.291 124.369 14.924 125.327 13.8238C126.285 12.7068 127.437 11.865 128.782 11.2982C130.143 10.7147 131.664 10.423 133.345 10.423C135.043 10.423 136.564 10.7147 137.909 11.2982C139.271 11.865 140.431 12.7068 141.389 13.8238C142.364 14.924 143.112 16.291 143.633 17.9247C144.154 19.5584 144.415 21.4339 144.415 23.551V25.3764C144.415 27.4769 144.154 29.344 143.633 30.9777C143.112 32.6114 142.364 33.9868 141.389 35.1037C140.431 36.2206 139.279 37.0625 137.934 37.6293C136.59 38.1961 135.077 38.4795 133.396 38.4795C131.715 38.4795 130.194 38.1961 128.832 37.6293C127.487 37.0625 126.327 36.2206 125.352 35.1037C124.377 33.9868 123.629 32.6114 123.108 30.9777C122.604 29.344 122.352 27.4769 122.352 25.3764ZM129.412 23.551V25.3764C129.412 26.6267 129.496 27.7103 129.664 28.6272C129.849 29.5441 130.109 30.3026 130.446 30.9027C130.799 31.5028 131.219 31.9446 131.706 32.228C132.194 32.5114 132.757 32.6531 133.396 32.6531C134.035 32.6531 134.606 32.5114 135.11 32.228C135.615 31.9446 136.027 31.5028 136.346 30.9027C136.682 30.3026 136.926 29.5441 137.077 28.6272C137.245 27.7103 137.329 26.6267 137.329 25.3764V23.551C137.329 22.3341 137.237 21.2671 137.052 20.3503C136.867 19.4167 136.606 18.6582 136.27 18.0747C135.934 17.4746 135.514 17.0245 135.01 16.7244C134.522 16.4077 133.967 16.2493 133.345 16.2493C132.723 16.2493 132.169 16.4077 131.681 16.7244C131.211 17.0245 130.799 17.4746 130.446 18.0747C130.109 18.6582 129.849 19.4167 129.664 20.3503C129.496 21.2671 129.412 22.3341 129.412 23.551Z" fill="#F7F7F7"/>
<path d="M155.988 16.5244V37.9793H148.903V10.9231H155.559L155.988 16.5244ZM154.98 23.526L153.038 23.576C153.004 21.6756 153.172 19.9252 153.542 18.3248C153.912 16.7244 154.467 15.3324 155.206 14.1488C155.963 12.9652 156.913 12.0483 158.056 11.3982C159.199 10.748 160.535 10.423 162.065 10.423C163.057 10.423 163.973 10.6063 164.813 10.9731C165.654 11.3232 166.385 11.8816 167.007 12.6485C167.629 13.3987 168.108 14.3822 168.444 15.5992C168.78 16.7994 168.948 18.2414 168.948 19.9252V37.9793H161.888V20.7754C161.888 19.5751 161.771 18.6582 161.535 18.0247C161.3 17.3746 160.964 16.9245 160.527 16.6744C160.09 16.4077 159.552 16.2743 158.913 16.2743C158.241 16.2743 157.652 16.4577 157.148 16.8245C156.644 17.1912 156.232 17.708 155.912 18.3748C155.61 19.025 155.375 19.7918 155.206 20.6753C155.055 21.5589 154.98 22.5091 154.98 23.526ZM168.268 22.8258L165.721 23.1509C165.687 21.3672 165.847 19.7085 166.2 18.1748C166.553 16.6244 167.099 15.2741 167.839 14.1238C168.579 12.9569 169.503 12.0483 170.613 11.3982C171.739 10.748 173.042 10.423 174.521 10.423C175.63 10.423 176.639 10.6063 177.547 10.9731C178.454 11.3399 179.228 11.9317 179.866 12.7485C180.522 13.5487 181.018 14.6073 181.354 15.9242C181.707 17.2412 181.883 18.8416 181.883 20.7254V37.9793H174.798V20.7504C174.798 19.5334 174.681 18.5999 174.445 17.9497C174.21 17.2996 173.874 16.8578 173.437 16.6244C173 16.391 172.478 16.2743 171.873 16.2743C171.268 16.2743 170.739 16.441 170.285 16.7744C169.848 17.1079 169.478 17.5746 169.175 18.1748C168.873 18.7582 168.646 19.4501 168.495 20.2502C168.343 21.0338 168.268 21.8923 168.268 22.8258Z" fill="#F7F7F7"/>
<g clip-path="url(#clip0_215_1750)">
<path d="M32.1876 2.2802C31.2062 4.26296 30.2249 6.24572 29.2436 8.12934C29.1454 8.32761 28.6548 8.52589 28.3604 8.52589C26.594 8.52589 24.8276 8.52589 22.865 8.52589C22.865 10.1121 22.865 11.6983 22.865 13.2845C22.865 13.5819 23.2575 13.8793 23.4538 13.9785C26.0052 15.763 28.5567 17.4483 31.3044 19.3319C30.323 19.5302 29.6361 19.6293 28.851 19.8276C29.538 22.7026 30.2249 25.5776 31.01 28.4526C31.1081 28.6509 31.4025 28.9483 31.6969 28.9483C34.5427 29.7414 37.3886 30.4354 40.3325 31.1293C40.6269 31.2285 41.1176 31.0302 41.412 30.7328C42.3933 29.8405 43.2765 28.8492 44.1597 27.8578C45.5336 29.2457 46.8093 30.5345 48.085 31.9224C48.2813 32.1207 48.3794 32.5173 48.3794 32.8147C48.3794 35.7888 48.3794 38.763 48.3794 41.638C48.3794 41.9354 48.085 42.4311 47.7906 42.5302C45.7298 43.6207 43.6691 44.6121 41.6083 45.7026C41.1176 46 40.8232 45.9009 40.5288 45.5043C38.8606 43.2242 36.5054 42.4311 33.7577 41.9354C24.7295 40.4483 15.7994 38.6638 6.86937 37.0776C6.57498 36.9785 6.28058 36.8793 6.08431 36.6811C4.80859 34.6983 3.33661 32.7155 2.25715 30.6336C-4.31773 17.6466 4.51419 1.48709 18.9397 0.198302C23.0612 -0.19825 27.2809 -0.0991121 31.1081 1.78451C31.4025 1.88365 31.6969 2.08192 32.1876 2.2802Z" fill="#E31423"/>
<path d="M25.8089 11.5C27.1828 11.5 28.6548 11.5 30.0286 11.5C30.6174 11.5 30.9118 11.3017 31.2062 10.806C32.2857 8.52588 33.4633 6.2457 34.6409 3.86639C35.0334 4.06467 35.3278 4.26295 35.5241 4.36208C39.5475 6.84053 43.5709 9.21984 47.6925 11.6983C48.1831 11.9957 48.3794 12.2931 48.3794 12.8879C48.2813 14.2759 48.3794 15.5647 48.3794 17.0517C46.3186 17.3492 44.356 17.6466 42.4915 17.944C40.4307 18.2414 38.3699 18.5388 36.3091 18.8362C36.0147 18.8362 35.5241 18.8362 35.2297 18.6379C32.1875 16.6552 29.2436 14.5733 26.2015 12.5905C25.9071 12.3923 25.8089 12.0948 25.6127 11.7974C25.6127 11.5992 25.7108 11.5 25.8089 11.5Z" fill="#E31423"/>
</g>
<defs>
<clipPath id="clip0_215_1750">
<rect width="48.3793" height="46" fill="white"/>
</clipPath>
</defs>
</svg>
